<?xml version="1.0" encoding="iso-8859-1"?>
<!-- Generator: Adobe Illustrator 19.0.0, SVG Export Plug-In . SVG Version: 6.00 Build 0)  -->
<svg version="1.1" id="Capa_1" xmlns="http://www.w3.org/2000/svg" xmlns:xlink="http://www.w3.org/1999/xlink" x="0px" y="0px"
	 viewBox="0 0 468.293 468.293" style="enable-background:new 0 0 468.293 468.293;" xml:space="preserve">
<path style="fill:#F6C358;" d="M207.908,77.556v16.463c0,96.755-78.408,175.233-175.163,175.233V77.556H207.908z"/>
<path style="fill:#FCD462;" d="M175.679,77.556v16.463c0,85.733-61.597,157.166-142.935,172.234V77.556H175.679z"/>
<path style="fill:#F6C358;" d="M128.244,77.556v16.463c0,68.014-38.786,127.1-95.499,156.049V77.556H128.244z"/>
<path style="fill:#FCD462;" d="M85.342,77.556v16.463c0,49.04-20.16,93.407-52.598,125.217V77.556H85.342z"/>
<path style="fill:#F6C358;" d="M165.02,414.012V401.58c0-73.065-59.21-132.328-132.275-132.328v144.76H165.02z"/>
<path style="fill:#FCD462;" d="M140.682,414.012V401.58c0-64.742-46.515-118.684-107.938-130.063v142.495H140.682z"/>
<path style="fill:#F6C358;" d="M104.861,414.012V401.58c0-51.361-29.289-95.98-72.117-117.841v130.273H104.861z"/>
<path style="fill:#FCD462;" d="M72.464,414.012V401.58c0-37.033-15.224-70.536-39.719-94.558v106.99H72.464z"/>
<path style="fill:#F6C358;" d="M260.385,77.556v16.463c0,96.755,78.408,175.233,175.163,175.233V77.556H260.385z"/>
<path style="fill:#FCD462;" d="M292.613,77.556v16.463c0,85.733,61.597,157.166,142.935,172.234V77.556H292.613z"/>
<path style="fill:#F6C358;" d="M340.049,77.556v16.463c0,68.014,38.786,127.1,95.499,156.049V77.556H340.049z"/>
<path style="fill:#FCD462;" d="M382.951,77.556v16.463c0,49.04,20.16,93.407,52.598,125.217V77.556H382.951z"/>
<path style="fill:#F6C358;" d="M303.273,414.012V401.58c0-73.065,59.21-132.328,132.275-132.328v144.76H303.273z"/>
<path style="fill:#FCD462;" d="M327.61,414.012V401.58c0-64.742,46.515-118.684,107.938-130.063v142.495H327.61z"/>
<path style="fill:#F6C358;" d="M363.432,414.012V401.58c0-51.361,29.289-95.98,72.117-117.841v130.273H363.432z"/>
<path style="fill:#FCD462;" d="M395.829,414.012V401.58c0-37.033,15.224-70.536,39.719-94.558v106.99H395.829z"/>
<g>
	<path style="fill:#64798A;" d="M468.276,319.774c0.291,4.83-3.375,8.961-8.204,9.194c-0.175,0.058-0.349,0.058-0.466,0.058
		c-4.655,0-8.496-3.608-8.728-8.263c-1.164-21.297-11.114-38.113-13.325-38.113h-59.12c-7.39,0-13.441-5.994-13.441-13.384
		c0-3.724,1.513-7.099,3.957-9.485c2.444-2.444,5.761-3.957,9.485-3.957h58.829c0.407,0,0.814,0,1.28,0.058
		c0.407,0,0.873,0.058,1.338,0.175c0.175,0,0.349,0.058,0.582,0.116c0.349,0.058,0.698,0.116,1.106,0.233
		c2.269,0.523,4.655,1.629,7.041,3.316C460.072,267.929,466.531,287.596,468.276,319.774z"/>
	<path style="fill:#64798A;" d="M0.016,319.774c-0.291,4.83,3.375,8.961,8.204,9.194c0.175,0.058,0.349,0.058,0.466,0.058
		c4.655,0,8.496-3.608,8.728-8.263c1.164-21.297,11.114-38.113,13.325-38.113h59.12c7.39,0,13.441-5.994,13.441-13.384
		c0-3.724-1.513-7.099-3.957-9.485c-2.444-2.444-5.761-3.957-9.485-3.957H31.03c-0.407,0-0.814,0-1.28,0.058
		c-0.407,0-0.873,0.058-1.338,0.175c-0.175,0-0.349,0.058-0.582,0.116c-0.349,0.058-0.698,0.116-1.106,0.233
		c-2.269,0.523-4.655,1.629-7.041,3.316C8.221,267.929,1.762,287.596,0.016,319.774z"/>
</g>
<path style="fill:#D5D6DB;" d="M440.715,77.556H27.578c-6.427,0-11.638-5.21-11.638-11.638v0c0-6.427,5.21-11.638,11.638-11.638
	h413.137c6.427,0,11.638,5.21,11.638,11.638v0C452.353,72.346,447.142,77.556,440.715,77.556z"/>
<g>
</g>
<g>
</g>
<g>
</g>
<g>
</g>
<g>
</g>
<g>
</g>
<g>
</g>
<g>
</g>
<g>
</g>
<g>
</g>
<g>
</g>
<g>
</g>
<g>
</g>
<g>
</g>
<g>
</g>
</svg>
